<svg width="28" height="18" viewBox="0 0 28 18" fill="none" xmlns="http://www.w3.org/2000/svg">
<g clip-path="url(#clip0_1336_11502)">
<g clip-path="url(#clip1_1336_11502)">
<path d="M0 0H35V18H0V0Z" fill="#CE1720"/>
<mask id="mask0_1336_11502" style="mask-type:luminance" maskUnits="userSpaceOnUse" x="0" y="0" width="5" height="18">
<path d="M0.185547 0H4.07444V12.16H4.22999V17.84L4.07444 18H0.185547V0Z" fill="white"/>
</mask>
<g mask="url(#mask0_1336_11502)">
<path d="M0.884852 0V0.28H0.709852V0.56H0.495964V0.88H0.340408V1.14H0.0292969V0.48H0.340408V0.12H0.0292969V0H0.884852ZM1.39041 1.54V1.84H1.23485V2.08H1.0793V1.84H0.923741V1.54H0.768186V1.14H0.923741V0.84H1.0793V0.6H1.23485V0.84H1.39041V1.14H1.54596V1.54H1.39041ZM1.05985 1.52H1.2543V1.16H1.05985V1.52ZM0.554297 3.66H0.709852V3.3H0.554297V3.66ZM1.6043 3.66H1.75985V3.3H1.6043V3.66ZM0.0292969 6.1H0.301519V6.36H0.418186V6.68H0.593186V6.98H0.826519V6.68H1.00152V6.36H1.15707V6.1H0.923741V5.8H1.33207V6H1.58485V6.34H1.79874V6.72H1.64319V7H1.50707V7.26H1.39041V7.54H1.21541V7.78H1.0793V8H0.904297V8.28H0.651519V7.98H0.476519V7.7H0.340408V7.52H0.0292969V7.06H0.340408V6.66H0.0292969V6.1Z" fill="white"/>
<path d="M3.37296 0V0.28H3.54796V0.56H3.76185V0.88H3.9174V1.14H4.22852V0.48H3.9174V0.12H4.22852V0H3.37296ZM2.8674 1.54V1.84H3.02296V2.08H3.17852V1.84H3.33407V1.54H3.48963V1.14H3.33407V0.84H3.17852V0.6H3.02296V0.84H2.8674V1.14H2.71185V1.54H2.8674ZM3.19796 1.52H3.00352V1.16H3.19796V1.52ZM3.70352 3.66H3.54796V3.3H3.70352V3.66ZM2.65352 3.66H2.49796V3.3H2.65352V3.66ZM4.22852 6.1H3.95629V6.36H3.83963V6.68H3.66463V6.98H3.43129V6.68H3.25629V6.36H3.10074V6.1H3.33407V5.8H2.92574V6H2.67296V6.34H2.45907V6.72H2.61463V7H2.75074V7.26H2.8674V7.54H3.0424V7.78H3.17852V8H3.35352V8.28H3.60629V7.98H3.78129V7.7H3.9174V7.52H4.22852V7.06H3.9174V6.66H4.22852V6.1Z" fill="white"/>
<path d="M2.05152 0V0.64H2.20707V0H2.8293V0.28H2.67374V0.56H2.44041V0.88H2.28485V1.14H1.97374V0.88H1.81819V0.56H1.58485V0.28H1.4293V0H2.05152ZM2.01263 5.48V5.26H1.89596V5H1.75985V4.72H1.6043V4.44H1.44874V4.24H1.27374V3.96H1.04041V4.24H0.865408V4.44H0.729297V4.72H0.573741V5H0.457075V5.26H0.340408V5.6H0.0292969V4.72H0.340408V4.32H0.0292969V3.66H0.340408V3.94H0.534852V4.22H0.729297V3.94H0.923741V3.66H1.0793V3.3H0.923741V3.02H0.729297V2.74H0.534852V3.02H0.340408V3.3H0.0292969V2.48H0.340408V2.1H0.0292969V1.54H0.340408V1.8H0.495964V2.12H0.709852V2.38H0.884852V2.68H1.02096V2.92H1.29319V2.68H1.4293V2.38H1.6043V2.12H1.81819V1.8H1.97374V1.54H2.28485V1.8H2.44041V2.12H2.6543V2.38H2.8293V2.68H2.96541V2.92H3.23763V2.68H3.37374V2.38H3.54874V2.12H3.76263V1.8H3.91819V1.54H4.2293V2.1H3.91819V2.48H4.2293V3.3H3.91819V3.02H3.72374V2.74H3.5293V3.02H3.33485V3.3H3.1793V3.66H3.33485V3.94H3.5293V4.22H3.72374V3.94H3.91819V3.66H4.2293V4.32H3.91819V4.72H4.2293V5.6H3.91819V5.26H3.80152V5H3.68485V4.72H3.5293V4.44H3.39319V4.24H3.21819V3.96H2.98485V4.24H2.80985V4.44H2.6543V4.72H2.49874V5H2.36263V5.26H2.24596V5.48H2.01263ZM2.05152 2.14V2.68H2.20707V2.14H2.05152ZM1.97374 3.3V3.02H1.7793V2.74H1.58485V3.02H1.39041V3.3H1.23485V3.66H1.39041V3.94H1.58485V4.22H1.7793V3.94H1.97374V3.66H2.28485V3.94H2.4793V4.22H2.67374V3.94H2.86819V3.66H3.02374V3.3H2.86819V3.02H2.67374V2.74H2.4793V3.02H2.28485V3.3H1.97374ZM2.05152 4.22V4.76H2.20707V4.22H2.05152Z" fill="white"/>
<path d="M0.884852 18V17.72H0.709852V17.44H0.495964V17.12H0.340408V16.86H0.0292969V17.52H0.340408V17.88H0.0292969V18H0.884852ZM1.39041 16.46V16.16H1.23485V15.92H1.0793V16.16H0.923741V16.46H0.768186V16.86H0.923741V17.16H1.0793V17.4H1.23485V17.16H1.39041V16.86H1.54596V16.46H1.39041ZM1.05985 16.48H1.2543V16.84H1.05985V16.48ZM0.554297 14.34H0.709852V14.7H0.554297V14.34ZM1.6043 14.34H1.75985V14.7H1.6043V14.34ZM0.0292969 11.9H0.301519V11.64H0.418186V11.32H0.593186V11.02H0.826519V11.32H1.00152V11.64H1.15707V11.9H0.923741V12.2H1.33207V12H1.58485V11.66H1.79874V11.28H1.64319V11H1.50707V10.74H1.39041V10.46H1.21541V10.22H1.0793V10H0.904297V9.72H0.651519V10.02H0.476519V10.3H0.340408V10.48H0.0292969V10.94H0.340408V11.34H0.0292969V11.9Z" fill="white"/>
<path d="M3.37296 18V17.72H3.54796V17.44H3.76185V17.12H3.9174V16.86H4.22852V17.52H3.9174V17.88H4.22852V18H3.37296ZM2.8674 16.46V16.16H3.02296V15.92H3.17852V16.16H3.33407V16.46H3.48963V16.86H3.33407V17.16H3.17852V17.4H3.02296V17.16H2.8674V16.86H2.71185V16.46H2.8674ZM3.19796 16.48H3.00352V16.84H3.19796V16.48ZM3.70352 14.34H3.54796V14.7H3.70352V14.34ZM2.65352 14.34H2.49796V14.7H2.65352V14.34ZM4.22852 11.9H3.95629V11.64H3.83963V11.32H3.66463V11.02H3.43129V11.32H3.25629V11.64H3.10074V11.9H3.33407V12.2H2.92574V12H2.67296V11.66H2.45907V11.28H2.61463V11H2.75074V10.74H2.8674V10.46H3.0424V10.22H3.17852V10H3.35352V9.72H3.60629V10.02H3.78129V10.3H3.9174V10.48H4.22852V10.94H3.9174V11.34H4.22852V11.9Z" fill="white"/>
<path d="M2.05152 18V17.36H2.20707V18H2.8293V17.72H2.67374V17.44H2.44041V17.12H2.28485V16.86H1.97374V17.12H1.81819V17.44H1.58485V17.72H1.4293V18H2.05152ZM2.01263 12.52V12.74H1.89596V13H1.75985V13.28H1.6043V13.56H1.44874V13.76H1.27374V14.04H1.04041V13.76H0.865408V13.56H0.729297V13.28H0.573741V13H0.457075V12.74H0.340408V12.4H0.0292969V13.28H0.340408V13.68H0.0292969V14.34H0.340408V14.06H0.534852V13.78H0.729297V14.06H0.923741V14.34H1.0793V14.7H0.923741V14.98H0.729297V15.26H0.534852V14.98H0.340408V14.7H0.0292969V15.52H0.340408V15.9H0.0292969V16.46H0.340408V16.2H0.495964V15.88H0.709852V15.62H0.884852V15.32H1.02096V15.08H1.29319V15.32H1.4293V15.62H1.6043V15.88H1.81819V16.2H1.97374V16.46H2.28485V16.2H2.44041V15.88H2.6543V15.62H2.8293V15.32H2.96541V15.08H3.23763V15.32H3.37374V15.62H3.54874V15.88H3.76263V16.2H3.91819V16.46H4.2293V15.9H3.91819V15.52H4.2293V14.7H3.91819V14.98H3.72374V15.26H3.5293V14.98H3.33485V14.7H3.1793V14.34H3.33485V14.06H3.5293V13.78H3.72374V14.06H3.91819V14.34H4.2293V13.68H3.91819V13.28H4.2293V12.4H3.91819V12.74H3.80152V13H3.68485V13.28H3.5293V13.56H3.39319V13.76H3.21819V14.04H2.98485V13.76H2.80985V13.56H2.6543V13.28H2.49874V13H2.36263V12.74H2.24596V12.52H2.01263ZM2.05152 15.86V15.32H2.20707V15.86H2.05152ZM1.97374 14.7V14.98H1.7793V15.26H1.58485V14.98H1.39041V14.7H1.23485V14.34H1.39041V14.06H1.58485V13.78H1.7793V14.06H1.97374V14.34H2.28485V14.06H2.4793V13.78H2.67374V14.06H2.86819V14.34H3.02374V14.7H2.86819V14.98H2.67374V15.26H2.4793V14.98H2.28485V14.7H1.97374ZM2.05152 13.78V13.24H2.20707V13.78H2.05152Z" fill="white"/>
<path d="M0.0292969 8.16006H0.340408V8.44006H0.476519V8.60006H0.632075V8.88006H0.768186V9.12006H0.632075V9.40006H0.476519V9.56006H0.340408V9.84006H0.0292969V8.16006ZM4.2293 8.16006V9.84006H3.91819V9.56006H3.78207V9.40006H3.62652V9.12006H3.49041V8.88006H3.62652V8.60006H3.78207V8.44006H3.91819V8.16006H4.2293ZM1.39041 9.18006H1.54596V8.82006H1.39041V9.18006ZM2.86819 9.18006V8.82006H2.71263V9.18006H2.86819ZM2.05152 8.00006H2.20707V7.64006H2.05152V8.00006ZM2.05152 10.0001V10.3601H2.20707V10.0001H2.05152ZM1.0793 8.50006H1.35152V8.28006H1.54596V8.08006H1.64319V7.88006H1.75985V7.60006H1.91541V7.32006H1.99319V7.06006H2.26541V7.32006H2.34319V7.60006H2.49874V7.88006H2.61541V8.08006H2.71263V8.28006H2.90707V8.50006H3.1793V9.50006H2.90707V9.72006H2.71263V9.92006H2.61541V10.1201H2.49874V10.4001H2.34319V10.6801H2.26541V10.9401H1.99319V10.6801H1.91541V10.4001H1.75985V10.1201H1.64319V9.92006H1.54596V9.72006H1.35152V9.50006H1.0793V8.50006ZM2.05152 8.68006V8.38006H1.89596V8.18006H1.74041V8.68006H1.89596V8.86006H1.99319V9.14006H1.89596V9.32006H1.74041V9.82006H1.89596V9.62006H2.05152V9.32006H2.20707V9.62006H2.36263V9.82006H2.51819V9.32006H2.36263V9.14006H2.26541V8.86006H2.36263V8.68006H2.51819V8.18006H2.36263V8.38006H2.20707V8.68006H2.05152Z" fill="white"/>
</g>
<path d="M4.07422 12H35.0001V18H4.07422V12Z" fill="#007C30"/>
</g>
</g>
<rect x="0.5" y="0.5" width="27" height="17" rx="2.5" stroke="#9FA7B6" stroke-opacity="0.3"/>
<defs>
<clipPath id="clip0_1336_11502">
<rect width="28" height="18" rx="3" fill="white"/>
</clipPath>
<clipPath id="clip1_1336_11502">
<rect width="28" height="18" fill="white"/>
</clipPath>
</defs>
</svg>
 