<svg width="28" height="18" viewBox="0 0 28 18" fill="none" xmlns="http://www.w3.org/2000/svg">
<g clip-path="url(#clip0_1336_11526)">
<g clip-path="url(#clip1_1336_11526)">
<path d="M0 0H35V18H0V0Z" fill="#CE1720"/>
<mask id="mask0_1336_11526" style="mask-type:luminance" maskUnits="userSpaceOnUse" x="0" y="0" width="5" height="18">
<path d="M0.185547 0H4.07444V12.16H4.22999V17.84L4.07444 18H0.185547V0Z" fill="white"/>
</mask>
<g mask="url(#mask0_1336_11526)">
<path d="M0.884852 0V0.28H0.709852V0.56H0.495964V0.88H0.340408V1.14H0.0292969V0.48H0.340408V0.12H0.0292969V0H0.884852ZM1.39041 1.54V1.84H1.23485V2.08H1.0793V1.84H0.923741V1.54H0.768186V1.14H0.923741V0.84H1.0793V0.6H1.23485V0.84H1.39041V1.14H1.54596V1.54H1.39041ZM1.05985 1.52H1.2543V1.16H1.05985V1.52ZM0.554297 3.66H0.709852V3.3H0.554297V3.66ZM1.6043 3.66H1.75985V3.3H1.6043V3.66ZM0.0292969 6.1H0.301519V6.36H0.418186V6.68H0.593186V6.98H0.826519V6.68H1.00152V6.36H1.15707V6.1H0.923741V5.8H1.33207V6H1.58485V6.34H1.79874V6.72H1.64319V7H1.50707V7.26H1.39041V7.54H1.21541V7.78H1.0793V8H0.904297V8.28H0.651519V7.98H0.476519V7.7H0.340408V7.52H0.0292969V7.06H0.340408V6.66H0.0292969V6.1Z" fill="white"/>
<path d="M3.37296 0V0.28H3.54796V0.56H3.76185V0.88H3.9174V1.14H4.22852V0.48H3.9174V0.12H4.22852V0H3.37296ZM2.8674 1.54V1.84H3.02296V2.08H3.17852V1.84H3.33407V1.54H3.48963V1.14H3.33407V0.84H3.17852V0.6H3.02296V0.84H2.8674V1.14H2.71185V1.54H2.8674ZM3.19796 1.52H3.00352V1.16H3.19796V1.52ZM3.70352 3.66H3.54796V3.3H3.70352V3.66ZM2.65352 3.66H2.49796V3.3H2.65352V3.66ZM4.22852 6.1H3.95629V6.36H3.83963V6.68H3.66463V6.98H3.43129V6.68H3.25629V6.36H3.10074V6.1H3.33407V5.8H2.92574V6H2.67296V6.34H2.45907V6.72H2.61463V7H2.75074V7.26H2.8674V7.54H3.0424V7.78H3.17852V8H3.35352V8.28H3.60629V7.98H3.78129V7.7H3.9174V7.52H4.22852V7.06H3.9174V6.66H4.22852V6.1Z" fill="white"/>
<path d="M2.05152 0V0.64H2.20707V0H2.8293V0.28H2.67374V0.56H2.44041V0.88H2.28485V1.14H1.97374V0.88H1.81819V0.56H1.58485V0.28H1.4293V0H2.05152ZM2.01263 5.48V5.26H1.89596V5H1.75985V4.72H1.6043V4.44H1.44874V4.24H1.27374V3.96H1.04041V4.24H0.865408V4.44H0.729297V4.72H0.573741V5H0.457075V5.26H0.340408V5.6H0.0292969V4.72H0.340408V4.32H0.0292969V3.66H0.340408V3.94H0.534852V4.22H0.729297V3.94H0.923741V3.66H1.0793V3.3H0.923741V3.02H0.729297V2.74H0.534852V3.02H0.340408V3.3H0.0292969V2.48H0.340408V2.1H0.0292969V1.54H0.340408V1.8H0.495964V2.12H0.709852V2.38H0.884852V2.68H1.02096V2.92H1.29319V2.68H1.4293V2.38H1.6043V2.12H1.81819V1.8H1.97374V1.54H2.28485V1.8H2.44041V2.12H2.6543V2.38H2.8293V2.68H2.96541V2.92H3.23763V2.68H3.37374V2.38H3.54874V2.12H3.76263V1.8H3.91819V1.54H4.2293V2.1H3.91819V2.48H4.2293V3.3H3.91819V3.02H3.72374V2.74H3.5293V3.02H3.33485V3.3H3.1793V3.66H3.33485V3.94H3.5293V4.22H3.72374V3.94H3.91819V3.66H4.2293V4.32H3.91819V4.72H4.2293V5.6H3.91819V5.26H3.80152V5H3.68485V4.72H3.5293V4.44H3.39319V4.24H3.21819V3.96H2.98485V4.24H2.80985V4.44H2.6543V4.72H2.49874V5H2.36263V5.26H2.24596V5.48H2.01263ZM2.05152 2.14V2.68H2.20707V2.14H2.05152ZM1.97374 3.3V3.02H1.7793V2.74H1.58485V3.02H1.39041V3.3H1.23485V3.66H1.39041V3.94H1.58485V4.22H1.7793V3.94H1.97374V3.66H2.28485V3.94H2.4793V4.22H2.67374V3.94H2.86819V3.66H3.02374V3.3H2.86819V3.02H2.67374V2.74H2.4793V3.02H2.28485V3.3H1.97374ZM2.05152 4.22V4.76H2.20707V4.22H2.05152Z" fill="white"/>
<path d="M0.884852 18V17.72H0.709852V17.44H0.495964V17.12H0.340408V16.86H0.0292969V17.52H0.340408V17.88H0.0292969V18H0.884852ZM1.39041 16.46V16.16H1.23485V15.92H1.0793V16.16H0.923741V16.46H0.768186V16.86H0.923741V17.16H1.0793V17.4H1.23485V17.16H1.39041V16.86H1.54596V16.46H1.39041ZM1.05985 16.48H1.2543V16.84H1.05985V16.48ZM0.554297 14.34H0.709852V14.7H0.554297V14.34ZM1.6043 14.34H1.75985V14.7H1.6043V14.34ZM0.0292969 11.9H0.301519V11.64H0.418186V11.32H0.593186V11.02H0.826519V11.32H1.00152V11.64H1.15707V11.9H0.923741V12.2H1.33207V12H1.58485V11.66H1.79874V11.28H1.64319V11H1.50707V10.74H1.39041V10.46H1.21541V10.22H1.0793V10H0.904297V9.72H0.651519V10.02H0.476519V10.3H0.340408V10.48H0.0292969V10.94H0.340408V11.34H0.0292969V11.9Z" fill="white"/>
<path d="M3.37296 18V17.72H3.54796V17.44H3.76185V17.12H3.9174V16.86H4.22852V17.52H3.9174V17.88H4.22852V18H3.37296ZM2.8674 16.46V16.16H3.02296V15.92H3.17852V16.16H3.33407V16.46H3.48963V16.86H3.33407V17.16H3.17852V17.4H3.02296V17.16H2.8674V16.86H2.71185V16.46H2.8674ZM3.19796 16.48H3.00352V16.84H3.19796V16.48ZM3.70352 14.34H3.54796V14.7H3.70352V14.34ZM2.65352 14.34H2.49796V14.7H2.65352V14.34ZM4.22852 11.9H3.95629V11.64H3.83963V11.32H3.66463V11.02H3.43129V11.32H3.25629V11.64H3.10074V11.9H3.33407V12.2H2.92574V12H2.67296V11.66H2.45907V11.28H2.61463V11H2.75074V10.74H2.8674V10.46H3.0424V10.22H3.17852V10H3.35352V9.72H3.60629V10.02H3.78129V10.3H3.9174V10.48H4.22852V10.94H3.9174V11.34H4.22852V11.9Z" fill="white"/>
<path d="M2.05152 18V17.36H2.20707V18H2.8293V17.72H2.67374V17.44H2.44041V17.12H2.28485V16.86H1.97374V17.12H1.81819V17.44H1.58485V17.72H1.4293V18H2.05152ZM2.01263 12.52V12.74H1.89596V13H1.75985V13.28H1.6043V13.56H1.44874V13.76H1.27374V14.04H1.04041V13.76H0.865408V13.56H0.729297V13.28H0.573741V13H0.457075V12.74H0.340408V12.4H0.0292969V13.28H0.340408V13.68H0.0292969V14.34H0.340408V14.06H0.534852V13.78H0.729297V14.06H0.923741V14.34H1.0793V14.7H0.923741V14.98H0.729297V15.26H0.534852V14.98H0.340408V14.7H0.0292969V15.52H0.340408V15.9H0.0292969V16.46H0.340408V16.2H0.495964V15.88H0.709852V15.62H0.884852V15.32H1.02096V15.08H1.29319V15.32H1.4293V15.62H1.6043V15.88H1.81819V16.2H1.97374V16.46H2.28485V16.2H2.44041V15.88H2.6543V15.62H2.8293V15.32H2.96541V15.08H3.23763V15.32H3.37374V15.62H3.54874V15.88H3.76263V16.2H3.91819V16.46H4.2293V15.9H3.91819V15.52H4.2293V14.7H3.91819V14.98H3.72374V15.26H3.5293V14.98H3.33485V14.7H3.1793V14.34H3.33485V14.06H3.5293V13.78H3.72374V14.06H3.91819V14.34H4.2293V13.68H3.91819V13.28H4.2293V12.4H3.91819V12.74H3.80152V13H3.68485V13.28H3.5293V13.56H3.39319V13.76H3.21819V14.04H2.98485V13.76H2.80985V13.56H2.6543V13.28H2.49874V13H2.36263V12.74H2.24596V12.52H2.01263ZM2.05152 15.86V15.32H2.20707V15.86H2.05152ZM1.97374 14.7V14.98H1.7793V15.26H1.58485V14.98H1.39041V14.7H1.23485V14.34H1.39041V14.06H1.58485V13.78H1.7793V14.06H1.97374V14.34H2.28485V14.06H2.4793V13.78H2.67374V14.06H2.86819V14.34H3.02374V14.7H2.86819V14.98H2.67374V15.26H2.4793V14.98H2.28485V14.7H1.97374ZM2.05152 13.78V13.24H2.20707V13.78H2.05152Z" fill="white"/>
<path d="M0.0292969 8.16006H0.340408V8.44006H0.476519V8.60006H0.632075V8.88006H0.768186V9.12006H0.632075V9.40006H0.476519V9.56006H0.340408V9.84006H0.0292969V8.16006ZM4.2293 8.16006V9.84006H3.91819V9.56006H3.78207V9.40006H3.62652V9.12006H3.49041V8.88006H3.62652V8.60006H3.78207V8.44006H3.91819V8.16006H4.2293ZM1.39041 9.18006H1.54596V8.82006H1.39041V9.18006ZM2.86819 9.18006V8.82006H2.71263V9.18006H2.86819ZM2.05152 8.00006H2.20707V7.64006H2.05152V8.00006ZM2.05152 10.0001V10.3601H2.20707V10.0001H2.05152ZM1.0793 8.50006H1.35152V8.28006H1.54596V8.08006H1.64319V7.88006H1.75985V7.60006H1.91541V7.32006H1.99319V7.06006H2.26541V7.32006H2.34319V7.60006H2.49874V7.88006H2.61541V8.08006H2.71263V8.28006H2.90707V8.50006H3.1793V9.50006H2.90707V9.72006H2.71263V9.92006H2.61541V10.1201H2.49874V10.4001H2.34319V10.6801H2.26541V10.9401H1.99319V10.6801H1.91541V10.4001H1.75985V10.1201H1.64319V9.92006H1.54596V9.72006H1.35152V9.50006H1.0793V8.50006ZM2.05152 8.68006V8.38006H1.89596V8.18006H1.74041V8.68006H1.89596V8.86006H1.99319V9.14006H1.89596V9.32006H1.74041V9.82006H1.89596V9.62006H2.05152V9.32006H2.20707V9.62006H2.36263V9.82006H2.51819V9.32006H2.36263V9.14006H2.26541V8.86006H2.36263V8.68006H2.51819V8.18006H2.36263V8.38006H2.20707V8.68006H2.05152Z" fill="white"/>
</g>
<path d="M4.07422 12H35.0001V18H4.07422V12Z" fill="#007C30"/>
</g>
<g clip-path="url(#clip2_1336_11526)">
<path d="M0 0H36V18H0V0Z" fill="#00ABC2"/>
<path d="M15.4492 9.98198C16.7868 9.98198 17.8711 8.89766 17.8711 7.56008C17.8711 6.22251 16.7868 5.13818 15.4492 5.13818C14.1117 5.13818 13.0273 6.22251 13.0273 7.56008C13.0273 8.89766 14.1117 9.98198 15.4492 9.98198Z" fill="#FFEC2D"/>
<path d="M15.45 4.80792C15.594 4.80612 15.648 4.71612 15.648 4.60812C15.648 4.46412 15.45 3.77832 15.45 3.77832C15.45 3.77832 15.252 4.46412 15.252 4.60812C15.252 4.71612 15.306 4.80792 15.45 4.80792Z" fill="#FFEC2D"/>
<path d="M18.2028 7.56006C18.2046 7.70406 18.2946 7.75806 18.4026 7.75806C18.5466 7.75806 19.2324 7.56006 19.2324 7.56006C19.2324 7.56006 18.5466 7.36206 18.4026 7.36206C18.2946 7.36206 18.2028 7.41606 18.2028 7.56006Z" fill="#FFEC2D"/>
<path d="M15.4504 10.3122C15.3064 10.314 15.2524 10.404 15.2524 10.512C15.2524 10.656 15.4504 11.3418 15.4504 11.3418C15.4504 11.3418 15.6484 10.656 15.6484 10.512C15.6484 10.404 15.5944 10.3122 15.4504 10.3122Z" fill="#FFEC2D"/>
<path d="M12.6976 7.56006C12.6958 7.41606 12.6058 7.36206 12.4978 7.36206C12.3538 7.36206 11.668 7.56006 11.668 7.56006C11.668 7.56006 12.3538 7.75806 12.4978 7.75806C12.6058 7.75806 12.6976 7.70406 12.6976 7.56006Z" fill="#FFEC2D"/>
<path d="M16.5018 5.01723C16.6355 5.07068 16.7199 5.00819 16.7612 4.90841C16.8163 4.77537 16.8958 4.06601 16.8958 4.06601C16.8958 4.06601 16.4504 4.62383 16.3953 4.75687C16.354 4.85665 16.3688 4.96213 16.5018 5.01723Z" fill="#FFEC2D"/>
<path d="M17.9925 8.61314C17.9391 8.74686 18.0016 8.83119 18.1014 8.87252C18.2344 8.92763 18.9438 9.00715 18.9438 9.00715C18.9438 9.00715 18.3859 8.56177 18.2529 8.50667C18.1531 8.46534 18.0476 8.4801 17.9925 8.61314Z" fill="#FFEC2D"/>
<path d="M14.3966 10.1026C14.2629 10.0492 14.1786 10.1117 14.1372 10.2115C14.0821 10.3445 14.0026 11.0539 14.0026 11.0539C14.0026 11.0539 14.448 10.496 14.5031 10.363C14.5444 10.2632 14.5297 10.1577 14.3966 10.1026Z" fill="#FFEC2D"/>
<path d="M12.9059 6.50674C12.9593 6.37301 12.8969 6.28868 12.7971 6.24735C12.664 6.19224 11.9547 6.11273 11.9547 6.11273C11.9547 6.11273 12.5125 6.5581 12.6455 6.61321C12.7453 6.65453 12.8508 6.63978 12.9059 6.50674Z" fill="#FFEC2D"/>
<path d="M17.3944 5.61414C17.4975 5.71469 17.5993 5.68923 17.6757 5.61287C17.7775 5.51104 18.1224 4.8861 18.1224 4.8861C18.1224 4.8861 17.4975 5.23103 17.3957 5.33285C17.3193 5.40922 17.2926 5.51231 17.3944 5.61414Z" fill="#FFEC2D"/>
<path d="M17.3976 9.50645C17.297 9.60955 17.3225 9.71137 17.3989 9.78774C17.5007 9.88956 18.1256 10.2345 18.1256 10.2345C18.1256 10.2345 17.7807 9.60955 17.6789 9.50773C17.6025 9.43136 17.4994 9.40463 17.3976 9.50645Z" fill="#FFEC2D"/>
<path d="M13.504 9.50622C13.4009 9.40567 13.2991 9.43113 13.2228 9.5075C13.1209 9.60932 12.776 10.2343 12.776 10.2343C12.776 10.2343 13.4009 9.88933 13.5028 9.78751C13.5791 9.71114 13.6059 9.60805 13.504 9.50622Z" fill="#FFEC2D"/>
<path d="M13.5028 5.61391C13.6034 5.51081 13.5779 5.40899 13.5015 5.33262C13.3997 5.2308 12.7748 4.88587 12.7748 4.88587C12.7748 4.88587 13.1197 5.51081 13.2215 5.61264C13.2979 5.689 13.401 5.71573 13.5028 5.61391Z" fill="#FFEC2D"/>
<path d="M17.9917 6.50711C18.0485 6.63946 18.1523 6.65491 18.2521 6.61358C18.3851 6.55848 18.943 6.1131 18.943 6.1131C18.943 6.1131 18.2336 6.19262 18.1006 6.24773C18.0008 6.28906 17.9366 6.37408 17.9917 6.50711Z" fill="#FFEC2D"/>
<path d="M16.5031 10.1031C16.3708 10.1598 16.3553 10.2636 16.3967 10.3634C16.4518 10.4965 16.8971 11.0543 16.8971 11.0543C16.8971 11.0543 16.8176 10.3449 16.7625 10.2119C16.7212 10.1121 16.6362 10.048 16.5031 10.1031Z" fill="#FFEC2D"/>
<path d="M12.9067 8.61349C12.8499 8.48114 12.7461 8.46569 12.6463 8.50702C12.5133 8.56213 11.9555 9.0075 11.9555 9.0075C11.9555 9.0075 12.6648 8.92799 12.7979 8.87288C12.8977 8.83155 12.9618 8.74653 12.9067 8.61349Z" fill="#FFEC2D"/>
<path d="M14.3953 5.01755C14.5276 4.96078 14.5431 4.85696 14.5018 4.75718C14.4467 4.62414 14.0013 4.06632 14.0013 4.06632C14.0013 4.06632 14.0808 4.77569 14.1359 4.90873C14.1772 5.0085 14.2623 5.07265 14.3953 5.01755Z" fill="#FFEC2D"/>
<path d="M15.9816 4.8607C16.1232 4.88703 16.1937 4.80929 16.2148 4.70337C16.2429 4.56213 16.1825 3.85088 16.1825 3.85088C16.1825 3.85088 15.8545 4.48488 15.8264 4.62611C15.8053 4.73204 15.8404 4.83261 15.9816 4.8607Z" fill="#FFEC2D"/>
<path d="M18.143 8.09685C18.1166 8.23843 18.1944 8.30895 18.3003 8.33002C18.4415 8.35811 19.1528 8.29771 19.1528 8.29771C19.1528 8.29771 18.5188 7.96972 18.3776 7.94163C18.2716 7.92056 18.1711 7.95561 18.143 8.09685Z" fill="#FFEC2D"/>
<path d="M14.9071 10.2594C14.7655 10.2331 14.695 10.3108 14.6739 10.4167C14.6458 10.558 14.7062 11.2692 14.7062 11.2692C14.7062 11.2692 15.0342 10.6352 15.0623 10.494C15.0833 10.3881 15.0483 10.2875 14.9071 10.2594Z" fill="#FFEC2D"/>
<path d="M12.7438 7.02303C12.7701 6.88144 12.6923 6.81092 12.5864 6.78985C12.4452 6.76176 11.7339 6.82216 11.7339 6.82216C11.7339 6.82216 12.3679 7.15015 12.5092 7.17824C12.6151 7.19931 12.7157 7.16426 12.7438 7.02303Z" fill="#FFEC2D"/>
<path d="M16.9774 5.27175C17.0981 5.35025 17.193 5.30542 17.253 5.21562C17.333 5.09589 17.5494 4.41567 17.5494 4.41567C17.5494 4.41567 17.0038 4.87589 16.9238 4.99562C16.8638 5.08542 16.8576 5.19175 16.9774 5.27175Z" fill="#FFEC2D"/>
<path d="M17.7351 9.0892C17.6566 9.20993 17.7014 9.30483 17.7912 9.36483C17.9109 9.44483 18.5912 9.66121 18.5912 9.66121C18.5912 9.66121 18.1309 9.11557 18.0112 9.03557C17.9214 8.97557 17.8151 8.96947 17.7351 9.0892Z" fill="#FFEC2D"/>
<path d="M13.9191 9.84861C13.7984 9.77011 13.7035 9.81494 13.6435 9.90474C13.5635 10.0245 13.3471 10.7047 13.3471 10.7047C13.3471 10.7047 13.8927 10.2445 13.9727 10.1247C14.0327 10.0349 14.0388 9.92862 13.9191 9.84861Z" fill="#FFEC2D"/>
<path d="M13.1594 6.03116C13.2379 5.91043 13.1931 5.81553 13.1033 5.75553C12.9836 5.67553 12.3034 5.45915 12.3034 5.45915C12.3034 5.45915 12.7636 6.00479 12.8833 6.08479C12.9731 6.14479 13.0794 6.1509 13.1594 6.03116Z" fill="#FFEC2D"/>
<path d="M17.7363 6.03108C17.8178 6.14981 17.9227 6.14471 18.0125 6.08471C18.1322 6.00471 18.5924 5.45906 18.5924 5.45906C18.5924 5.45906 17.9122 5.67544 17.7925 5.75545C17.7027 5.81545 17.6563 5.91135 17.7363 6.03108Z" fill="#FFEC2D"/>
<path d="M16.9782 9.8484C16.8595 9.9299 16.8646 10.0347 16.9246 10.1245C17.0046 10.2443 17.5502 10.7045 17.5502 10.7045C17.5502 10.7045 17.3338 10.0243 17.2538 9.90453C17.1938 9.81473 17.0979 9.7684 16.9782 9.8484Z" fill="#FFEC2D"/>
<path d="M13.1601 9.08904C13.0786 8.97031 12.9738 8.97541 12.884 9.03541C12.7643 9.11541 12.3041 9.66105 12.3041 9.66105C12.3041 9.66105 12.9843 9.44467 13.104 9.36467C13.1938 9.30467 13.2401 9.20877 13.1601 9.08904Z" fill="#FFEC2D"/>
<path d="M13.9202 5.27171C14.039 5.19021 14.0339 5.08538 13.9739 4.99558C13.8939 4.87585 13.3482 4.41563 13.3482 4.41563C13.3482 4.41563 13.5646 5.09586 13.6446 5.21559C13.7046 5.30539 13.8005 5.35172 13.9202 5.27171Z" fill="#FFEC2D"/>
<path d="M18.148 7.02299C18.1778 7.16387 18.2766 7.19928 18.3825 7.17821C18.5238 7.15011 19.1578 6.82213 19.1578 6.82213C19.1578 6.82213 18.4465 6.76172 18.3053 6.78982C18.1994 6.81089 18.1199 6.88176 18.148 7.02299Z" fill="#FFEC2D"/>
<path d="M15.9858 10.2593C15.8449 10.2891 15.8095 10.3879 15.8306 10.4939C15.8587 10.6351 16.1867 11.2691 16.1867 11.2691C16.1867 11.2691 16.2471 10.5578 16.219 10.4166C16.1979 10.3107 16.127 10.2312 15.9858 10.2593Z" fill="#FFEC2D"/>
<path d="M12.7485 8.09688C12.7187 7.956 12.6199 7.9206 12.5139 7.94167C12.3727 7.96976 11.7387 8.29775 11.7387 8.29775C11.7387 8.29775 12.45 8.35815 12.5912 8.33006C12.6971 8.30899 12.7766 8.23812 12.7485 8.09688Z" fill="#FFEC2D"/>
<path d="M14.9107 4.86059C15.0516 4.83073 15.087 4.73193 15.0659 4.626C15.0378 4.48477 14.7098 3.85078 14.7098 3.85078C14.7098 3.85078 14.6494 4.56203 14.6775 4.70326C14.6986 4.80918 14.7695 4.88869 14.9107 4.86059Z" fill="#FFEC2D"/>
<path d="M15.0181 12.8064C14.9533 12.81 14.8903 12.8184 14.8285 12.8382C14.7439 12.8496 14.6629 12.879 14.5789 12.8928L14.5453 12.8982L14.4889 12.9036C14.4925 12.9192 14.4949 12.9348 14.4949 12.9504C14.4949 12.9666 14.4931 12.9822 14.4889 12.9954C14.4853 13.008 14.4739 13.0236 14.4649 13.0332C14.4529 13.0464 14.4403 13.0578 14.4253 13.065C14.4109 13.0722 14.3947 13.0752 14.3785 13.0764C14.3623 13.077 14.3455 13.0764 14.3299 13.0704C14.3137 13.065 14.2987 13.0548 14.2849 13.0428C14.2683 13.0469 14.2514 13.0499 14.2345 13.0518C14.2177 13.0536 14.2021 13.0536 14.1871 13.0518C14.1703 13.047 14.1529 13.0416 14.1367 13.035C14.1204 13.0282 14.1047 13.02 14.0899 13.0104C14.0287 13.0464 13.9603 13.0806 13.9231 13.1436C13.9021 13.1724 13.8979 13.2054 13.8931 13.2396C13.8901 13.2816 13.9009 13.326 13.9189 13.365C13.9255 13.3764 13.9309 13.3236 13.9513 13.3164C13.9855 13.2882 14.0281 13.2678 14.0713 13.2564C14.1079 13.2378 14.1031 13.2576 14.0881 13.2864C14.0845 13.3014 14.0641 13.3584 14.0917 13.3296C14.2135 13.2756 14.3485 13.2648 14.4799 13.2546C14.6707 13.2348 14.8621 13.2306 15.0535 13.2282L15.5935 13.2396C15.6793 13.242 15.7657 13.2612 15.8503 13.2468C15.8707 13.2414 15.9025 13.2402 15.9145 13.2282C15.8761 13.206 15.8311 13.2054 15.7885 13.2H15.4453C15.3499 13.1904 15.2503 13.1892 15.1603 13.1532C15.1363 13.1436 15.1141 13.1208 15.0913 13.1454C15.0571 13.1574 15.0205 13.1658 14.9845 13.1682C14.9215 13.173 14.8585 13.1598 14.8003 13.1364C14.8423 13.0782 14.8927 13.0272 14.9389 12.9732C14.9017 12.9672 14.8657 12.9594 14.8285 12.9504C14.8939 12.9054 14.9545 12.8544 15.0181 12.8064Z" fill="#FFEC2D"/>
<path d="M17.8212 13.4282C17.6907 13.5065 17.5912 13.3677 17.4822 13.326C17.4044 13.3683 17.3971 13.5098 17.3243 13.5768C17.2373 13.6758 17.1307 13.5491 17.1386 13.4514C17.0345 13.5391 16.9819 13.738 16.8136 13.7114C16.7338 13.6464 16.6746 13.5098 16.6137 13.6653C16.564 13.7413 16.4317 13.8494 16.3632 13.7347C16.342 13.6333 16.2912 13.5142 16.236 13.6751C16.1982 13.789 16.0767 13.8727 15.9592 13.8229C15.8949 13.7703 16.0108 13.5758 15.9289 13.5896C15.8065 13.6705 15.7354 13.8715 15.5646 13.8554C15.4982 13.7809 15.6048 13.6548 15.532 13.5722C15.4462 13.6824 15.3509 13.8438 15.2024 13.8554C15.1306 13.7972 15.2052 13.6304 15.1594 13.6057C15.007 13.6971 14.8461 13.86 14.6545 13.809C14.7292 13.5232 15.0413 13.423 15.3038 13.4007C15.7554 13.3452 16.2305 13.4473 16.665 13.2843C16.7352 13.2415 16.9053 13.181 16.8447 13.0819C16.7911 13.0036 16.9843 13.0342 17.0029 12.9429C16.9914 12.8271 17.0915 12.843 17.1894 12.8329C17.6282 12.814 18.0616 12.9064 18.4991 12.9221C18.5321 13.1352 18.2957 13.2849 18.1053 13.2191C18.0144 13.2338 17.878 13.01 17.9047 13.1728C17.8864 13.2583 17.8992 13.3711 17.8212 13.4282M14.088 12.9918C14.1895 13.0847 14.2608 12.9742 14.3557 12.9339C14.6742 12.8243 14.952 12.6329 15.2259 12.4417C15.3919 12.3043 15.5358 12.1262 15.7587 12.0817C16.1935 11.9502 16.6557 11.9662 17.0921 11.8449C17.4245 11.3898 17.989 11.2275 18.4619 10.9659C18.5681 10.9329 18.6091 10.8455 18.643 10.7491C18.8235 10.4641 19.0694 10.2116 19.3602 10.0391C19.4978 9.96396 19.6619 9.92067 19.8177 9.95505C19.8066 10.1406 19.7001 10.305 19.5716 10.4333C19.6768 10.431 19.7672 10.3646 19.8734 10.3683C19.9098 10.5587 19.7042 10.6584 19.5948 10.7769C19.6558 10.7911 19.8892 10.8087 19.762 10.8698C19.5999 10.9823 19.4148 11.0595 19.2651 11.1902C19.4032 11.215 19.4189 11.2443 19.2785 11.2942C19.2026 11.3458 19.0564 11.3638 19.0423 11.4641C19.1466 11.5282 18.9942 11.5918 18.9355 11.6127C18.8231 11.6389 18.7051 11.6877 18.8544 11.773C18.7979 11.8583 18.6768 11.8765 18.578 11.8681C18.6079 11.9647 18.6514 12.0729 18.5259 12.1155C18.2447 12.3281 17.9146 12.4828 17.5611 12.5181C18.0027 12.5521 18.4576 12.4701 18.835 12.2299C18.8848 12.171 19.1461 12.1077 18.9999 12.0582C18.9311 12.0296 18.7837 11.9977 18.7737 11.9453C18.9781 11.8192 19.2356 11.864 19.4555 11.7891C19.4612 11.7179 19.2883 11.7377 19.2238 11.7215C19.07 11.7089 19.079 11.6697 19.2273 11.6552C19.4149 11.6055 19.6274 11.5957 19.7852 11.4734C19.6567 11.4139 19.4951 11.4663 19.358 11.4177C19.5904 11.316 19.8646 11.3058 20.0731 11.153C20.1681 11.0473 19.9514 11.0803 19.8883 11.0829C19.7596 11.1053 19.7001 11.0437 19.8463 10.9902C20.0959 10.8061 20.4121 10.6866 20.5875 10.4197C20.629 10.3599 20.6852 10.1799 20.5527 10.2447C20.3785 10.3026 20.2252 10.4985 20.0266 10.4379C20.4178 10.1347 20.7901 9.78956 21.0575 9.36998C21.0713 9.24897 20.8813 9.23588 20.8319 9.33089C20.5805 9.57306 20.3531 9.85892 20.0313 10.0107C20.3395 9.7133 20.5943 9.36109 20.8166 8.99605C20.8642 8.88747 20.9923 8.7569 20.9228 8.63636C20.8107 8.5436 20.6706 8.62851 20.6123 8.7395C20.417 8.99456 20.2686 9.29226 20.0174 9.5C20.2373 9.08022 20.465 8.63335 20.4706 8.14917C20.4699 8.04948 20.4499 7.90268 20.3145 7.92129C20.2072 7.94053 20.2327 8.10114 20.1885 8.18238C20.0911 8.51316 20.0453 8.8714 19.8456 9.16104C19.8905 8.89224 19.9692 8.61204 19.9088 8.3406C19.8806 8.2193 19.6847 8.27148 19.7099 8.39154C19.4759 9.57702 18.6804 10.6138 17.6401 11.2136C17.1637 11.4831 16.6317 11.6568 16.0904 11.7356C15.9448 11.7675 15.7873 11.7488 15.6481 11.7984C15.3108 12.057 15.1066 12.4898 14.6796 12.6253C14.4883 12.7204 14.2387 12.7397 14.1019 12.9175C14.09 12.9402 14.0875 12.9665 14.088 12.9918Z" fill="#FFEC2D"/>
<path d="M15.3657 11.789C15.3027 11.9034 15.2656 12.0349 15.1846 12.1373C14.9409 11.9155 14.5876 11.9228 14.2784 11.9081C14.0232 11.8945 13.7457 11.8709 13.5483 11.6889C13.3406 11.5188 13.171 11.2979 12.9389 11.1598C12.7271 11.1022 12.5135 11.0302 12.3432 10.885C11.9793 10.5883 11.7708 10.1481 11.4152 9.84216C11.3474 9.77542 11.2674 9.72371 11.1915 9.66708C11.1193 9.68466 11.1519 9.84044 11.0636 9.76104C11.0156 9.72684 10.8954 9.72351 10.8845 9.77128C10.9933 9.91456 11.1021 10.0782 11.1172 10.2614C11.043 10.269 10.9112 10.2458 10.8744 10.2734C10.9729 10.421 11.0991 10.5519 11.2425 10.6561C11.1737 10.6672 11.0382 10.6611 11.0118 10.6889C11.1542 10.8049 11.3068 10.9235 11.4933 10.9533C11.5314 11.0036 11.4375 11.1007 11.5165 11.1437C11.5623 11.1624 11.7135 11.1937 11.6093 11.2458C11.5379 11.294 11.5644 11.4062 11.6558 11.4037C11.7136 11.4332 11.8433 11.4404 11.8534 11.4915C11.8022 11.5436 11.6429 11.6054 11.7785 11.6542C11.9052 11.7245 12.0497 11.7701 12.1944 11.7751C12.1218 11.8362 12.0323 11.8709 11.9576 11.9284C12.2915 12.1241 12.6616 12.2529 13.0274 12.3769C13.173 12.4256 13.3203 12.4709 13.4713 12.4995C13.0326 12.4742 12.6087 12.3443 12.2092 12.1666C12.0021 12.0758 11.7937 11.988 11.5815 11.9098C11.6745 11.8614 11.7821 11.8496 11.8786 11.8077C11.6783 11.7675 11.4595 11.7544 11.2834 11.6443C11.3104 11.5961 11.4127 11.5938 11.4693 11.5693C11.5757 11.5438 11.6417 11.5129 11.4917 11.5037C11.3404 11.4626 11.1669 11.481 11.0335 11.3898C11.0421 11.335 11.1817 11.3541 11.2385 11.3305C11.3101 11.3182 11.3896 11.3079 11.4468 11.2597C11.2129 11.1628 10.907 11.2315 10.7238 11.0249C10.6815 10.9462 10.855 11.0096 10.9044 10.9965C11.0299 10.9965 11.1648 11.0364 11.2843 10.9858C10.9435 10.8362 10.5784 10.6961 10.3185 10.4193C10.2897 10.3748 10.2032 10.2533 10.2729 10.2382C10.4753 10.265 10.6217 10.4858 10.8381 10.4514C10.8668 10.4127 10.7124 10.3492 10.6738 10.2938C10.3583 10.023 10.0521 9.72923 9.83096 9.3746C9.81575 9.25616 10.0019 9.23843 10.0509 9.32988C10.2922 9.56228 10.5102 9.83347 10.8107 9.99212C10.9173 10.0438 10.7495 9.93092 10.7271 9.88997C10.4494 9.56752 10.1851 9.22696 9.991 8.8472C9.95626 8.77876 9.89869 8.65485 10.0026 8.61842C10.1065 8.56636 10.2096 8.63728 10.2623 8.72654C10.4665 8.98403 10.6167 9.29007 10.871 9.50459C10.6544 9.08413 10.423 8.64153 10.4174 8.15769C10.4225 8.06391 10.4286 7.92203 10.5557 7.92588C10.6625 7.90968 10.6457 8.04641 10.6807 8.11161C10.7859 8.46705 10.8318 8.85179 11.0429 9.16562C10.9962 8.90193 10.9276 8.63039 10.9732 8.36233C10.9837 8.27431 11.0828 8.24767 11.1475 8.30088C11.1998 8.42886 11.2107 8.5869 11.2583 8.72372C11.5294 9.65108 12.1381 10.4667 12.9312 11.014C13.5845 11.4621 14.3598 11.7295 15.151 11.7762C15.2225 11.7824 15.2942 11.7846 15.3658 11.789" fill="#FFEC2D"/>
<path d="M14.361 13.0186C14.3845 13.0186 14.4036 12.9995 14.4036 12.976C14.4036 12.9524 14.3845 12.9333 14.361 12.9333C14.3374 12.9333 14.3184 12.9524 14.3184 12.976C14.3184 12.9995 14.3374 13.0186 14.361 13.0186Z" fill="#FFEC2D"/>
<path d="M14.3572 12.9864C14.3668 12.9864 14.3746 12.9786 14.3746 12.969C14.3746 12.9594 14.3668 12.9517 14.3572 12.9517C14.3476 12.9517 14.3398 12.9594 14.3398 12.969C14.3398 12.9786 14.3476 12.9864 14.3572 12.9864Z" fill="#FFEC2D" stroke="#FFEC2D" stroke-width="0.1905"/>
<path d="M2.1605 1.3126C2.1605 1.3126 1.98752 1.16724 1.92877 1.24015C1.83427 1.35742 2.21929 1.94158 2.21929 2.14728C2.21929 2.48494 1.99398 2.57676 1.71577 2.62498C1.52909 2.65735 1.22511 2.61145 1.22511 2.61145C1.28235 2.53453 1.31957 2.51187 1.41602 2.50573C1.30865 2.44999 1.19932 2.32897 1.19932 2.14062C1.19932 1.85014 1.31889 1.7304 1.31889 1.40293C1.31889 1.22125 1.16992 0.98999 1.16992 0.98999C1.43324 1.01634 1.56374 1.26015 1.48949 1.455C1.5314 1.46103 1.56945 1.45158 1.60214 1.42062C1.6214 1.47462 1.59098 1.53732 1.55024 1.59133C1.58306 1.60887 1.60716 1.59835 1.65943 1.58755C1.65446 1.64321 1.62113 1.70232 1.53955 1.75798C1.77627 1.69651 1.92193 1.8615 1.92193 2.03422C1.92193 2.16469 1.8305 2.2582 1.74113 2.2582C1.71226 2.2582 1.66984 2.2463 1.64591 2.22843C1.62903 2.26434 1.63772 2.3124 1.65509 2.34831C1.58961 2.33099 1.54803 2.29209 1.57762 2.21113C1.52731 2.2065 1.4873 2.18951 1.46008 2.15713C1.48766 2.12179 1.52951 2.10145 1.57762 2.10311C1.54099 2.02751 1.58182 1.98521 1.64131 1.9509C1.64131 1.9509 1.60347 2.10311 1.70008 2.10311C1.74351 2.10311 1.78309 2.08896 1.78309 2.02494C1.78309 1.96919 1.73437 1.89197 1.6217 1.89688C1.50904 1.9018 1.41773 1.97455 1.41773 2.15439C1.41773 2.32028 1.55154 2.40279 1.72787 2.40812C1.88686 2.41303 2.00687 2.3269 2.00687 2.16287C2.00687 1.94457 1.69172 1.44696 1.69172 1.25243C1.69172 1.10645 1.82298 1.02498 1.95141 1.02498C2.11795 1.02498 2.25845 1.18988 2.25845 1.18988L2.16062 1.31255L2.1605 1.3126Z" fill="#FFEC2D"/>
<path d="M2.19647 5.25853C2.19647 5.62339 1.86891 5.81092 1.61151 5.81092C1.26472 5.81092 1.08008 5.60358 1.08008 5.33215C1.08008 5.17829 1.10827 5.08175 1.1792 4.9345L1.97396 3.28474C2.00173 3.22736 2.0107 3.16202 2.0107 3.06626C2.0107 2.91835 1.86724 2.79746 1.71681 2.79376C1.57969 2.79034 1.43029 2.92159 1.43029 3.07117C1.43029 3.25285 1.52453 3.33385 1.6213 3.33385C1.74039 3.33385 1.78784 3.28489 1.78784 3.20128C1.78784 3.14301 1.7597 3.11781 1.71926 3.11781C1.61713 3.11781 1.6458 3.25529 1.6458 3.25529C1.59508 3.24419 1.55339 3.19235 1.57722 3.12762C1.5387 3.11911 1.50394 3.09846 1.47804 3.06871C1.50542 3.04216 1.53683 3.02167 1.57722 3.01471C1.5533 2.93572 1.58527 2.89715 1.65437 2.88091C1.64042 2.91128 1.63995 2.93923 1.64458 2.9656C1.75335 2.93466 1.92008 2.98389 1.92008 3.17181C1.92008 3.35838 1.79059 3.51548 1.54783 3.47623C1.60557 3.50384 1.63495 3.56034 1.64089 3.62352C1.59679 3.60635 1.54783 3.6039 1.54783 3.6039C1.57621 3.65394 1.61563 3.69709 1.61394 3.79537C1.56894 3.7749 1.52713 3.73701 1.46945 3.76099C1.55999 3.93915 1.44875 4.1842 1.16578 4.24218C1.26935 4.12077 1.32005 3.98969 1.32005 3.85919C1.32005 3.43627 1.20251 3.36518 1.20251 3.07115C1.20251 2.94812 1.26575 2.81528 1.39108 2.725V2.72991C1.30825 2.70772 1.25518 2.66693 1.22467 2.61151C1.41394 2.55783 1.68907 2.55882 1.83678 2.61694C2.00659 2.63662 2.12514 2.76688 2.16006 2.83301C2.19498 2.89915 2.26282 3.13817 2.16006 3.35343L1.3519 5.06699C1.31683 5.14196 1.29556 5.22149 1.29556 5.30758C1.29556 5.52412 1.49392 5.59972 1.6066 5.59972C1.74129 5.59972 1.87843 5.49712 1.87843 5.36896C1.87843 5.28776 1.83433 5.23886 1.77067 5.23886C1.61842 5.23886 1.62767 5.36837 1.65802 5.44998C1.56327 5.40737 1.50819 5.33133 1.52333 5.25113C1.46969 5.24377 1.41862 5.21834 1.3715 5.1652C1.40858 5.1184 1.45379 5.083 1.52333 5.08174C1.49296 4.95732 1.57625 4.90471 1.65802 4.87553C1.63216 4.96684 1.61518 5.07193 1.77067 5.07193C1.88407 5.07193 1.97331 5.09156 2.02537 5.16522L2.03761 4.67913C2.04416 4.53337 1.84252 4.53752 1.71436 4.58092C1.76273 4.41304 1.86193 4.32226 2.0915 4.34525C2.03577 4.32194 1.97639 4.2695 1.97639 4.16849C1.97642 4.03181 2.0873 3.8804 2.1601 3.83563L2.19649 5.25855L2.19647 5.25853Z" fill="#FFEC2D"/>
<path d="M2.19647 6.35304C2.19647 5.98818 1.86891 5.80066 1.61151 5.80066C1.26472 5.80066 1.08008 6.008 1.08008 6.27942C1.08008 6.43328 1.10827 6.52982 1.1792 6.67708L1.97396 8.32683C2.00173 8.38421 2.0107 8.44955 2.0107 8.54531C2.0107 8.69322 1.86724 8.81411 1.71681 8.81782C1.57969 8.82124 1.43029 8.68998 1.43029 8.5404C1.43029 8.35873 1.52453 8.27773 1.6213 8.27773C1.74039 8.27773 1.78784 8.32669 1.78784 8.4103C1.78784 8.46856 1.7597 8.49376 1.71926 8.49376C1.61713 8.49376 1.6458 8.35628 1.6458 8.35628C1.59508 8.36738 1.55339 8.41922 1.57722 8.48395C1.5387 8.49246 1.50394 8.51311 1.47804 8.54287C1.50542 8.56942 1.53683 8.5899 1.57722 8.59687C1.5533 8.67585 1.58527 8.71442 1.65437 8.73066C1.64042 8.70029 1.63995 8.67234 1.64458 8.64597C1.75335 8.67691 1.92008 8.62768 1.92008 8.43976C1.92008 8.25319 1.79059 8.09609 1.54783 8.13535C1.60557 8.10773 1.63495 8.05123 1.64089 7.98805C1.59679 8.00522 1.54783 8.00767 1.54783 8.00767C1.57621 7.95763 1.61563 7.91449 1.61394 7.81621C1.56894 7.83667 1.52713 7.87456 1.46945 7.85059C1.55999 7.67242 1.44875 7.42737 1.16578 7.36939C1.26935 7.4908 1.32005 7.62188 1.32005 7.75238C1.32005 8.17531 1.20251 8.24639 1.20251 8.54042C1.20251 8.66345 1.26575 8.79629 1.39108 8.88658V8.88166C1.30825 8.90386 1.25518 8.94464 1.22467 9.00007C1.41394 9.05374 1.68907 9.05275 1.83678 8.99463C2.00659 8.97496 2.12514 8.84469 2.16006 8.77856C2.19498 8.71243 2.26282 8.4734 2.16006 8.25814L1.3519 6.54458C1.31683 6.46961 1.29556 6.39008 1.29556 6.30399C1.29556 6.08745 1.49392 6.01185 1.6066 6.01185C1.74129 6.01185 1.87843 6.11445 1.87843 6.24261C1.87843 6.32381 1.83433 6.37271 1.77067 6.37271C1.61842 6.37271 1.62767 6.2432 1.65802 6.16159C1.56327 6.2042 1.50819 6.28025 1.52333 6.36044C1.46969 6.3678 1.41862 6.39323 1.3715 6.44637C1.40858 6.49317 1.45379 6.52858 1.52333 6.52984C1.49296 6.65425 1.57625 6.70687 1.65802 6.73604C1.63216 6.64473 1.61518 6.53965 1.77067 6.53965C1.88407 6.53965 1.97331 6.52001 2.02537 6.44635L2.03761 6.93244C2.04416 7.07821 1.84252 7.07405 1.71436 7.03065C1.76273 7.19854 1.86193 7.28931 2.0915 7.26632C2.03577 7.28963 1.97639 7.34207 1.97639 7.44308C1.97642 7.57976 2.0873 7.73117 2.1601 7.77594L2.19649 6.35302L2.19647 6.35304Z" fill="#FFEC2D"/>
<path d="M2.15981 1.3126C2.15981 1.3126 2.33279 1.16724 2.39155 1.24015C2.48605 1.35742 2.10103 1.94158 2.10103 2.14728C2.10103 2.48494 2.32633 2.57676 2.60454 2.62498C2.79122 2.65735 3.0952 2.61145 3.0952 2.61145C3.03796 2.53453 3.00074 2.51187 2.90429 2.50573C3.01166 2.44999 3.121 2.32897 3.121 2.14062C3.121 1.85014 3.00142 1.7304 3.00142 1.40293C3.00142 1.22125 3.15039 0.98999 3.15039 0.98999C2.88707 1.01634 2.75657 1.26015 2.83082 1.455C2.78891 1.46103 2.75086 1.45158 2.71817 1.42062C2.69891 1.47462 2.72933 1.53732 2.77007 1.59133C2.73725 1.60887 2.71315 1.59835 2.66088 1.58755C2.66585 1.64321 2.69918 1.70232 2.78076 1.75798C2.54404 1.69651 2.39839 1.8615 2.39839 2.03422C2.39839 2.16469 2.48981 2.2582 2.57918 2.2582C2.60805 2.2582 2.65048 2.2463 2.6744 2.22843C2.69128 2.26434 2.68259 2.3124 2.66522 2.34831C2.7307 2.33099 2.77228 2.29209 2.74269 2.21113C2.793 2.2065 2.83301 2.18951 2.86023 2.15713C2.83265 2.12179 2.7908 2.10145 2.74269 2.10311C2.77932 2.02751 2.7385 1.98521 2.67901 1.9509C2.67901 1.9509 2.71684 2.10311 2.62024 2.10311C2.5768 2.10311 2.53722 2.08896 2.53722 2.02494C2.53722 1.96919 2.58595 1.89197 2.69861 1.89688C2.81127 1.9018 2.90258 1.97455 2.90258 2.15439C2.90258 2.32028 2.76877 2.40279 2.59244 2.40812C2.43345 2.41303 2.31344 2.3269 2.31344 2.16287C2.31344 1.94457 2.62859 1.44696 2.62859 1.25243C2.62859 1.10645 2.49733 1.02498 2.3689 1.02498C2.20237 1.02498 2.06186 1.18988 2.06186 1.18988L2.15969 1.31255L2.15981 1.3126Z" fill="#FFEC2D"/>
<path d="M2.12384 5.25853C2.12384 5.62339 2.4514 5.81092 2.7088 5.81092C3.05559 5.81092 3.24023 5.60358 3.24023 5.33215C3.24023 5.17829 3.21205 5.08175 3.14111 4.9345L2.34635 3.28474C2.31858 3.22736 2.30962 3.16202 2.30962 3.06626C2.30962 2.91835 2.45308 2.79746 2.6035 2.79376C2.74063 2.79034 2.89003 2.92159 2.89003 3.07117C2.89003 3.25285 2.79578 3.33385 2.69901 3.33385C2.57992 3.33385 2.53247 3.28489 2.53247 3.20128C2.53247 3.14301 2.56061 3.11781 2.60105 3.11781C2.70319 3.11781 2.67451 3.25529 2.67451 3.25529C2.72524 3.24419 2.76692 3.19235 2.74309 3.12762C2.78161 3.11911 2.81638 3.09846 2.84227 3.06871C2.81489 3.04216 2.78348 3.02167 2.74309 3.01471C2.76701 2.93572 2.73505 2.89715 2.66594 2.88091C2.67989 2.91128 2.68036 2.93923 2.67574 2.9656C2.56696 2.93466 2.40023 2.98389 2.40023 3.17181C2.40023 3.35838 2.52972 3.51548 2.77249 3.47623C2.71474 3.50384 2.68537 3.56034 2.67943 3.62352C2.72353 3.60635 2.77249 3.6039 2.77249 3.6039C2.7441 3.65394 2.70468 3.69709 2.70637 3.79537C2.75137 3.7749 2.79319 3.73701 2.85086 3.76099C2.76032 3.93915 2.87156 4.1842 3.15454 4.24218C3.05096 4.12077 3.00026 3.98969 3.00026 3.85919C3.00026 3.43627 3.1178 3.36518 3.1178 3.07115C3.1178 2.94812 3.05456 2.81528 2.92923 2.725V2.72991C3.01207 2.70772 3.06513 2.66693 3.09564 2.61151C2.90637 2.55783 2.63124 2.55882 2.48353 2.61694C2.31372 2.63662 2.19517 2.76688 2.16025 2.83301C2.12533 2.89915 2.05749 3.13817 2.16025 3.35343L2.96842 5.06699C3.00348 5.14196 3.02476 5.22149 3.02476 5.30758C3.02476 5.52412 2.8264 5.59972 2.71372 5.59972C2.57902 5.59972 2.44188 5.49712 2.44188 5.36896C2.44188 5.28776 2.48598 5.23886 2.54965 5.23886C2.70189 5.23886 2.69264 5.36837 2.66229 5.44998C2.75704 5.40737 2.81212 5.33133 2.79698 5.25113C2.85062 5.24377 2.90169 5.21834 2.94881 5.1652C2.91173 5.1184 2.86652 5.083 2.79698 5.08174C2.82735 4.95732 2.74406 4.90471 2.66229 4.87553C2.68816 4.96684 2.70513 5.07193 2.54965 5.07193C2.43625 5.07193 2.347 5.09156 2.29495 5.16522L2.28271 4.67913C2.27615 4.53337 2.47779 4.53752 2.60595 4.58092C2.55758 4.41304 2.45839 4.32226 2.22881 4.34525C2.28454 4.32194 2.34392 4.2695 2.34392 4.16849C2.34389 4.03181 2.23301 3.8804 2.16022 3.83563L2.12382 5.25855L2.12384 5.25853Z" fill="#FFEC2D"/>
<path d="M2.12384 6.35304C2.12384 5.98818 2.4514 5.80066 2.7088 5.80066C3.05559 5.80066 3.24023 6.008 3.24023 6.27942C3.24023 6.43328 3.21205 6.52982 3.14111 6.67708L2.34635 8.32683C2.31858 8.38421 2.30962 8.44955 2.30962 8.54531C2.30962 8.69322 2.45308 8.81411 2.6035 8.81782C2.74063 8.82124 2.89003 8.68998 2.89003 8.5404C2.89003 8.35873 2.79578 8.27773 2.69901 8.27773C2.57992 8.27773 2.53247 8.32669 2.53247 8.4103C2.53247 8.46856 2.56061 8.49376 2.60105 8.49376C2.70319 8.49376 2.67451 8.35628 2.67451 8.35628C2.72524 8.36738 2.76692 8.41922 2.74309 8.48395C2.78161 8.49246 2.81638 8.51311 2.84227 8.54287C2.81489 8.56942 2.78348 8.5899 2.74309 8.59687C2.76701 8.67585 2.73505 8.71442 2.66594 8.73066C2.67989 8.70029 2.68036 8.67234 2.67574 8.64597C2.56696 8.67691 2.40023 8.62768 2.40023 8.43976C2.40023 8.25319 2.52972 8.09609 2.77249 8.13535C2.71474 8.10773 2.68537 8.05123 2.67943 7.98805C2.72353 8.00522 2.77249 8.00767 2.77249 8.00767C2.7441 7.95763 2.70468 7.91449 2.70637 7.81621C2.75137 7.83667 2.79319 7.87456 2.85086 7.85059C2.76032 7.67242 2.87156 7.42737 3.15454 7.36939C3.05096 7.4908 3.00026 7.62188 3.00026 7.75238C3.00026 8.17531 3.1178 8.24639 3.1178 8.54042C3.1178 8.66345 3.05456 8.79629 2.92923 8.88658V8.88166C3.01207 8.90386 3.06513 8.94464 3.09564 9.00007C2.90637 9.05374 2.63124 9.05275 2.48353 8.99463C2.31372 8.97496 2.19517 8.84469 2.16025 8.77856C2.12533 8.71243 2.05749 8.4734 2.16025 8.25814L2.96842 6.54458C3.00348 6.46961 3.02476 6.39008 3.02476 6.30399C3.02476 6.08745 2.8264 6.01185 2.71372 6.01185C2.57902 6.01185 2.44188 6.11445 2.44188 6.24261C2.44188 6.32381 2.48598 6.37271 2.54965 6.37271C2.70189 6.37271 2.69264 6.2432 2.66229 6.16159C2.75704 6.2042 2.81212 6.28025 2.79698 6.36044C2.85062 6.3678 2.90169 6.39323 2.94881 6.44637C2.91173 6.49317 2.86652 6.52858 2.79698 6.52984C2.82735 6.65425 2.74406 6.70687 2.66229 6.73604C2.68816 6.64473 2.70513 6.53965 2.54965 6.53965C2.43625 6.53965 2.347 6.52001 2.29495 6.44635L2.28271 6.93244C2.27615 7.07821 2.47779 7.07405 2.60595 7.03065C2.55758 7.19854 2.45839 7.28931 2.22881 7.26632C2.28454 7.28963 2.34392 7.34207 2.34392 7.44308C2.34389 7.57976 2.23301 7.73117 2.16022 7.77594L2.12382 6.35302L2.12384 6.35304Z" fill="#FFEC2D"/>
<path d="M2.1605 16.6874C2.1605 16.6874 1.98752 16.8328 1.92877 16.7598C1.83427 16.6426 2.21929 16.0584 2.21929 15.8527C2.21929 15.5151 1.99398 15.4232 1.71577 15.375C1.52909 15.3427 1.22511 15.3886 1.22511 15.3886C1.28235 15.4655 1.31957 15.4881 1.41602 15.4943C1.30865 15.55 1.19932 15.671 1.19932 15.8594C1.19932 16.1499 1.31889 16.2696 1.31889 16.5971C1.31889 16.7787 1.16992 17.01 1.16992 17.01C1.43324 16.9837 1.56374 16.7398 1.48949 16.545C1.5314 16.539 1.56945 16.5484 1.60214 16.5794C1.6214 16.5254 1.59098 16.4627 1.55024 16.4087C1.58306 16.3911 1.60716 16.4016 1.65943 16.4124C1.65446 16.3568 1.62113 16.2977 1.53955 16.242C1.77627 16.3035 1.92193 16.1385 1.92193 15.9658C1.92193 15.8353 1.8305 15.7418 1.74113 15.7418C1.71226 15.7418 1.66984 15.7537 1.64591 15.7716C1.62903 15.7357 1.63772 15.6876 1.65509 15.6517C1.58961 15.669 1.54803 15.7079 1.57762 15.7889C1.52731 15.7935 1.4873 15.8105 1.46008 15.8429C1.48766 15.8782 1.52951 15.8985 1.57762 15.8969C1.54099 15.9725 1.58182 16.0148 1.64131 16.0491C1.64131 16.0491 1.60347 15.8969 1.70008 15.8969C1.74351 15.8969 1.78309 15.911 1.78309 15.9751C1.78309 16.0308 1.73437 16.108 1.6217 16.1031C1.50904 16.0982 1.41773 16.0254 1.41773 15.8456C1.41773 15.6797 1.55154 15.5972 1.72787 15.5919C1.88686 15.587 2.00687 15.6731 2.00687 15.8371C2.00687 16.0554 1.69172 16.553 1.69172 16.7476C1.69172 16.8935 1.82298 16.975 1.95141 16.975C2.11795 16.975 2.25845 16.8101 2.25845 16.8101L2.16062 16.6874L2.1605 16.6874Z" fill="#FFEC2D"/>
<path d="M2.19647 12.7415C2.19647 12.3766 1.86891 12.1891 1.61151 12.1891C1.26472 12.1891 1.08008 12.3964 1.08008 12.6678C1.08008 12.8217 1.10827 12.9182 1.1792 13.0655L1.97396 14.7153C2.00173 14.7726 2.0107 14.838 2.0107 14.9337C2.0107 15.0816 1.86724 15.2025 1.71681 15.2062C1.57969 15.2097 1.43029 15.0784 1.43029 14.9288C1.43029 14.7472 1.52453 14.6662 1.6213 14.6662C1.74039 14.6662 1.78784 14.7151 1.78784 14.7987C1.78784 14.857 1.7597 14.8822 1.71926 14.8822C1.61713 14.8822 1.6458 14.7447 1.6458 14.7447C1.59508 14.7558 1.55339 14.8077 1.57722 14.8724C1.5387 14.8809 1.50394 14.9015 1.47804 14.9313C1.50542 14.9578 1.53683 14.9783 1.57722 14.9853C1.5533 15.0643 1.58527 15.1029 1.65437 15.1191C1.64042 15.0887 1.63995 15.0608 1.64458 15.0344C1.75335 15.0653 1.92008 15.0161 1.92008 14.8282C1.92008 14.6416 1.79059 14.4845 1.54783 14.5238C1.60557 14.4962 1.63495 14.4397 1.64089 14.3765C1.59679 14.3937 1.54783 14.3961 1.54783 14.3961C1.57621 14.3461 1.61563 14.3029 1.61394 14.2046C1.56894 14.2251 1.52713 14.263 1.46945 14.239C1.55999 14.0608 1.44875 13.8158 1.16578 13.7578C1.26935 13.8792 1.32005 14.0103 1.32005 14.1408C1.32005 14.5637 1.20251 14.6348 1.20251 14.9288C1.20251 15.0519 1.26575 15.1847 1.39108 15.275V15.2701C1.30825 15.2923 1.25518 15.3331 1.22467 15.3885C1.41394 15.4422 1.68907 15.4412 1.83678 15.3831C2.00659 15.3634 2.12514 15.2331 2.16006 15.167C2.19498 15.1009 2.26282 14.8618 2.16006 14.6466L1.3519 12.933C1.31683 12.858 1.29556 12.7785 1.29556 12.6924C1.29556 12.4759 1.49392 12.4003 1.6066 12.4003C1.74129 12.4003 1.87843 12.5029 1.87843 12.631C1.87843 12.7122 1.83433 12.7611 1.77067 12.7611C1.61842 12.7611 1.62767 12.6316 1.65802 12.55C1.56327 12.5926 1.50819 12.6687 1.52333 12.7489C1.46969 12.7562 1.41862 12.7817 1.3715 12.8348C1.40858 12.8816 1.45379 12.917 1.52333 12.9183C1.49296 13.0427 1.57625 13.0953 1.65802 13.1245C1.63216 13.0332 1.61518 12.9281 1.77067 12.9281C1.88407 12.9281 1.97331 12.9084 2.02537 12.8348L2.03761 13.3209C2.04416 13.4666 1.84252 13.4625 1.71436 13.4191C1.76273 13.587 1.86193 13.6777 2.0915 13.6548C2.03577 13.6781 1.97639 13.7305 1.97639 13.8315C1.97642 13.9682 2.0873 14.1196 2.1601 14.1644L2.19649 12.7414L2.19647 12.7415Z" fill="#FFEC2D"/>
<path d="M2.19647 11.647C2.19647 12.0118 1.86891 12.1993 1.61151 12.1993C1.26472 12.1993 1.08008 11.992 1.08008 11.7206C1.08008 11.5667 1.10827 11.4702 1.1792 11.3229L1.97396 9.67317C2.00173 9.61579 2.0107 9.55045 2.0107 9.45469C2.0107 9.30678 1.86724 9.18589 1.71681 9.18218C1.57969 9.17876 1.43029 9.31002 1.43029 9.4596C1.43029 9.64127 1.52453 9.72227 1.6213 9.72227C1.74039 9.72227 1.78784 9.67331 1.78784 9.5897C1.78784 9.53144 1.7597 9.50624 1.71926 9.50624C1.61713 9.50624 1.6458 9.64372 1.6458 9.64372C1.59508 9.63262 1.55339 9.58078 1.57722 9.51605C1.5387 9.50754 1.50394 9.48689 1.47804 9.45713C1.50542 9.43058 1.53683 9.4101 1.57722 9.40313C1.5533 9.32415 1.58527 9.28558 1.65437 9.26934C1.64042 9.29971 1.63995 9.32766 1.64458 9.35403C1.75335 9.32309 1.92008 9.37232 1.92008 9.56024C1.92008 9.74681 1.79059 9.90391 1.54783 9.86465C1.60557 9.89227 1.63495 9.94877 1.64089 10.0119C1.59679 9.99478 1.54783 9.99233 1.54783 9.99233C1.57621 10.0424 1.61563 10.0855 1.61394 10.1838C1.56894 10.1633 1.52713 10.1254 1.46945 10.1494C1.55999 10.3276 1.44875 10.5726 1.16578 10.6306C1.26935 10.5092 1.32005 10.3781 1.32005 10.2476C1.32005 9.82469 1.20251 9.75361 1.20251 9.45958C1.20251 9.33655 1.26575 9.20371 1.39108 9.11342V9.11834C1.30825 9.09614 1.25518 9.05536 1.22467 8.99993C1.41394 8.94626 1.68907 8.94725 1.83678 9.00537C2.00659 9.02504 2.12514 9.15531 2.16006 9.22144C2.19498 9.28757 2.26282 9.5266 2.16006 9.74186L1.3519 11.4554C1.31683 11.5304 1.29556 11.6099 1.29556 11.696C1.29556 11.9126 1.49392 11.9882 1.6066 11.9882C1.74129 11.9882 1.87843 11.8856 1.87843 11.7574C1.87843 11.6762 1.83433 11.6273 1.77067 11.6273C1.61842 11.6273 1.62767 11.7568 1.65802 11.8384C1.56327 11.7958 1.50819 11.7198 1.52333 11.6396C1.46969 11.6322 1.41862 11.6068 1.3715 11.5536C1.40858 11.5068 1.45379 11.4714 1.52333 11.4702C1.49296 11.3457 1.57625 11.2931 1.65802 11.264C1.63216 11.3553 1.61518 11.4604 1.77067 11.4604C1.88407 11.4604 1.97331 11.48 2.02537 11.5536L2.03761 11.0676C2.04416 10.9218 1.84252 10.926 1.71436 10.9694C1.76273 10.8015 1.86193 10.7107 2.0915 10.7337C2.03577 10.7104 1.97639 10.6579 1.97639 10.5569C1.97642 10.4202 2.0873 10.2688 2.1601 10.2241L2.19649 11.647L2.19647 11.647Z" fill="#FFEC2D"/>
<path d="M2.15981 16.6874C2.15981 16.6874 2.33279 16.8328 2.39155 16.7598C2.48605 16.6426 2.10103 16.0584 2.10103 15.8527C2.10103 15.5151 2.32633 15.4232 2.60454 15.375C2.79122 15.3427 3.0952 15.3886 3.0952 15.3886C3.03796 15.4655 3.00074 15.4881 2.90429 15.4943C3.01166 15.55 3.121 15.671 3.121 15.8594C3.121 16.1499 3.00142 16.2696 3.00142 16.5971C3.00142 16.7787 3.15039 17.01 3.15039 17.01C2.88707 16.9837 2.75657 16.7398 2.83082 16.545C2.78891 16.539 2.75086 16.5484 2.71817 16.5794C2.69891 16.5254 2.72933 16.4627 2.77007 16.4087C2.73725 16.3911 2.71315 16.4016 2.66088 16.4124C2.66585 16.3568 2.69918 16.2977 2.78076 16.242C2.54404 16.3035 2.39839 16.1385 2.39839 15.9658C2.39839 15.8353 2.48981 15.7418 2.57918 15.7418C2.60805 15.7418 2.65048 15.7537 2.6744 15.7716C2.69128 15.7357 2.68259 15.6876 2.66522 15.6517C2.7307 15.669 2.77228 15.7079 2.74269 15.7889C2.793 15.7935 2.83301 15.8105 2.86023 15.8429C2.83265 15.8782 2.7908 15.8985 2.74269 15.8969C2.77932 15.9725 2.7385 16.0148 2.67901 16.0491C2.67901 16.0491 2.71684 15.8969 2.62024 15.8969C2.5768 15.8969 2.53722 15.911 2.53722 15.9751C2.53722 16.0308 2.58595 16.108 2.69861 16.1031C2.81127 16.0982 2.90258 16.0254 2.90258 15.8456C2.90258 15.6797 2.76877 15.5972 2.59244 15.5919C2.43345 15.587 2.31344 15.6731 2.31344 15.8371C2.31344 16.0554 2.62859 16.553 2.62859 16.7476C2.62859 16.8935 2.49733 16.975 2.3689 16.975C2.20237 16.975 2.06186 16.8101 2.06186 16.8101L2.15969 16.6874L2.15981 16.6874Z" fill="#FFEC2D"/>
<path d="M2.12384 12.7415C2.12384 12.3766 2.4514 12.1891 2.7088 12.1891C3.05559 12.1891 3.24023 12.3964 3.24023 12.6678C3.24023 12.8217 3.21205 12.9182 3.14111 13.0655L2.34635 14.7153C2.31858 14.7726 2.30962 14.838 2.30962 14.9337C2.30962 15.0816 2.45308 15.2025 2.6035 15.2062C2.74063 15.2097 2.89003 15.0784 2.89003 14.9288C2.89003 14.7472 2.79578 14.6662 2.69901 14.6662C2.57992 14.6662 2.53247 14.7151 2.53247 14.7987C2.53247 14.857 2.56061 14.8822 2.60105 14.8822C2.70319 14.8822 2.67451 14.7447 2.67451 14.7447C2.72524 14.7558 2.76692 14.8077 2.74309 14.8724C2.78161 14.8809 2.81638 14.9015 2.84227 14.9313C2.81489 14.9578 2.78348 14.9783 2.74309 14.9853C2.76701 15.0643 2.73505 15.1029 2.66594 15.1191C2.67989 15.0887 2.68036 15.0608 2.67574 15.0344C2.56696 15.0653 2.40023 15.0161 2.40023 14.8282C2.40023 14.6416 2.52972 14.4845 2.77249 14.5238C2.71474 14.4962 2.68537 14.4397 2.67943 14.3765C2.72353 14.3937 2.77249 14.3961 2.77249 14.3961C2.7441 14.3461 2.70468 14.3029 2.70637 14.2046C2.75137 14.2251 2.79319 14.263 2.85086 14.239C2.76032 14.0608 2.87156 13.8158 3.15454 13.7578C3.05096 13.8792 3.00026 14.0103 3.00026 14.1408C3.00026 14.5637 3.1178 14.6348 3.1178 14.9288C3.1178 15.0519 3.05456 15.1847 2.92923 15.275V15.2701C3.01207 15.2923 3.06513 15.3331 3.09564 15.3885C2.90637 15.4422 2.63124 15.4412 2.48353 15.3831C2.31372 15.3634 2.19517 15.2331 2.16025 15.167C2.12533 15.1009 2.05749 14.8618 2.16025 14.6466L2.96842 12.933C3.00348 12.858 3.02476 12.7785 3.02476 12.6924C3.02476 12.4759 2.8264 12.4003 2.71372 12.4003C2.57902 12.4003 2.44188 12.5029 2.44188 12.631C2.44188 12.7122 2.48598 12.7611 2.54965 12.7611C2.70189 12.7611 2.69264 12.6316 2.66229 12.55C2.75704 12.5926 2.81212 12.6687 2.79698 12.7489C2.85062 12.7562 2.90169 12.7817 2.94881 12.8348C2.91173 12.8816 2.86652 12.917 2.79698 12.9183C2.82735 13.0427 2.74406 13.0953 2.66229 13.1245C2.68816 13.0332 2.70513 12.9281 2.54965 12.9281C2.43625 12.9281 2.347 12.9084 2.29495 12.8348L2.28271 13.3209C2.27615 13.4666 2.47779 13.4625 2.60595 13.4191C2.55758 13.587 2.45839 13.6777 2.22881 13.6548C2.28454 13.6781 2.34392 13.7305 2.34392 13.8315C2.34389 13.9682 2.23301 14.1196 2.16022 14.1644L2.12382 12.7414L2.12384 12.7415Z" fill="#FFEC2D"/>
<path d="M2.12384 11.647C2.12384 12.0118 2.4514 12.1993 2.7088 12.1993C3.05559 12.1993 3.24023 11.992 3.24023 11.7206C3.24023 11.5667 3.21205 11.4702 3.14111 11.3229L2.34635 9.67317C2.31858 9.61579 2.30962 9.55045 2.30962 9.45469C2.30962 9.30678 2.45308 9.18589 2.6035 9.18218C2.74063 9.17876 2.89003 9.31002 2.89003 9.4596C2.89003 9.64127 2.79578 9.72227 2.69901 9.72227C2.57992 9.72227 2.53247 9.67331 2.53247 9.5897C2.53247 9.53144 2.56061 9.50624 2.60105 9.50624C2.70319 9.50624 2.67451 9.64372 2.67451 9.64372C2.72524 9.63262 2.76692 9.58078 2.74309 9.51605C2.78161 9.50754 2.81638 9.48689 2.84227 9.45713C2.81489 9.43058 2.78348 9.4101 2.74309 9.40313C2.76701 9.32415 2.73505 9.28558 2.66594 9.26934C2.67989 9.29971 2.68036 9.32766 2.67574 9.35403C2.56696 9.32309 2.40023 9.37232 2.40023 9.56024C2.40023 9.74681 2.52972 9.90391 2.77249 9.86465C2.71474 9.89227 2.68537 9.94877 2.67943 10.0119C2.72353 9.99478 2.77249 9.99233 2.77249 9.99233C2.7441 10.0424 2.70468 10.0855 2.70637 10.1838C2.75137 10.1633 2.79319 10.1254 2.85086 10.1494C2.76032 10.3276 2.87156 10.5726 3.15454 10.6306C3.05096 10.5092 3.00026 10.3781 3.00026 10.2476C3.00026 9.82469 3.1178 9.75361 3.1178 9.45958C3.1178 9.33655 3.05456 9.20371 2.92923 9.11342V9.11834C3.01207 9.09614 3.06513 9.05536 3.09564 8.99993C2.90637 8.94626 2.63124 8.94725 2.48353 9.00537C2.31372 9.02504 2.19517 9.15531 2.16025 9.22144C2.12533 9.28757 2.05749 9.5266 2.16025 9.74186L2.96842 11.4554C3.00348 11.5304 3.02476 11.6099 3.02476 11.696C3.02476 11.9126 2.8264 11.9882 2.71372 11.9882C2.57902 11.9882 2.44188 11.8856 2.44188 11.7574C2.44188 11.6762 2.48598 11.6273 2.54965 11.6273C2.70189 11.6273 2.69264 11.7568 2.66229 11.8384C2.75704 11.7958 2.81212 11.7198 2.79698 11.6396C2.85062 11.6322 2.90169 11.6068 2.94881 11.5536C2.91173 11.5068 2.86652 11.4714 2.79698 11.4702C2.82735 11.3457 2.74406 11.2931 2.66229 11.264C2.68816 11.3553 2.70513 11.4604 2.54965 11.4604C2.43625 11.4604 2.347 11.48 2.29495 11.5536L2.28271 11.0676C2.27615 10.9218 2.47779 10.926 2.60595 10.9694C2.55758 10.8015 2.45839 10.7107 2.22881 10.7337C2.28454 10.7104 2.34392 10.6579 2.34392 10.5569C2.34389 10.4202 2.23301 10.2688 2.16022 10.2241L2.12382 11.647L2.12384 11.647Z" fill="#FFEC2D"/>
</g>
</g>
<rect x="0.5" y="0.5" width="27" height="17" rx="2.5" stroke="#9FA7B6" stroke-opacity="0.3"/>
<defs>
<clipPath id="clip0_1336_11526">
<rect width="28" height="18" rx="3" fill="white"/>
</clipPath>
<clipPath id="clip1_1336_11526">
<rect width="28" height="18" fill="white"/>
</clipPath>
<clipPath id="clip2_1336_11526">
<rect width="28" height="18" fill="white"/>
</clipPath>
</defs>
</svg>
